<svg width="430" height="269" viewBox="0 0 430 269" fill="none" xmlns="http://www.w3.org/2000/svg">
<path d="M-183 358.292L-147.292 342.006C-111.583 326.328 -40.1667 292.842 31.25 228.456C102.667 163.462 174.083 66.0473 245.5 25.407C316.917 -14.6245 388.333 0.596609 459.75 17.3398C531.167 34.083 602.583 49.3041 638.292 57.9802L674 66.0473V407H638.292C602.583 407 531.167 407 459.75 407C388.333 407 316.917 407 245.5 407C174.083 407 102.667 407 31.25 407C-40.1667 407 -111.583 407 -147.292 407H-183V358.292Z" fill="#90C67C"/>
</svg>
