<svg width="430" height="278" viewBox="0 0 430 278" fill="none" xmlns="http://www.w3.org/2000/svg">
<path d="M-201 310.755L-166.417 296.629C-131.833 283.032 -62.6667 253.988 6.5 198.145C75.6667 141.775 144.833 57.2843 214 22.0361C283.167 -12.6841 352.333 0.517452 421.5 15.0392C490.667 29.561 559.833 42.7626 594.417 50.2875L629 57.2843V353H594.417C559.833 353 490.667 353 421.5 353C352.333 353 283.167 353 214 353C144.833 353 75.6667 353 6.5 353C-62.6667 353 -131.833 353 -166.417 353H-201V310.755Z" fill="#FFF1D5"/>
</svg>
